<svg xmlns="http://www.w3.org/2000/svg" xml:space="preserve" width="1500" height="145" viewBox="0 0 1500 145" data-version="1" data-id="lg_uxXKSv2nLl3QI0k109"><g id="outer-wrapper" data-padding="20" transform="matrix(1,0,0,1,0,0)"><g id="inner-wrapper" transform="matrix(0.9646643109540636,0,0,0.9646643109540636,10,2.5618374558303856)"><rect width="100" height="100" x="278.05065505065517" y="-345.4594594594594" fill="#3d9970" rx="10" ry="10" transform="translate(175.69 400.56)scale(1.11)"></rect><rect width="431.365" height="144.64" x="148.45322710622713" y="-400.28" fill="none" rx="0" ry="0" transform="translate(464.82 400.46)"></rect><path fill="#2f7c5a" d="M672.1462271062271 78.53000000000003H640.2762271062271L632.0862271062272 98.88000000000005Q630.1662271062271 103.62000000000006 630.1662271062271 106.69000000000005Q630.1662271062271 110.91000000000008 634.006227106227 112.71000000000004H615.7062271062271Q616.986227106227 112.71000000000004 619.4162271062271 110.15000000000003T625.0462271062271 100.03000000000003L658.4562271062271 20.55000000000001L691.606227106227 100.42000000000002Q694.4262271062271 107.33000000000004 697.046227106227 109.89000000000004T701.2062271062271 112.71000000000004H679.9562271062271Q683.1562271062271 111.17000000000002 683.1562271062271 107.97000000000003Q683.1562271062271 105.28000000000003 681.106227106227 100.29000000000002ZM642.4562271062271 73.28000000000003H670.1062271062272L656.1462271062271 39.110000000000014ZM769.6862271062271 31.430000000000007Q769.6862271062271 28.870000000000005 768.2762271062271 27.00999999999999T763.9262271062271 24.639999999999986H785.4262271062271Q783.766227106227 24.899999999999977 780.9462271062271 27.589999999999975Q778.1362271062271 30.269999999999982 775.0662271062271 37.56999999999999L742.6762271062271 115.77999999999997L709.7862271062271 37.19Q706.966227106227 30.399999999999977 704.216227106227 27.779999999999973Q701.466227106227 25.149999999999977 699.6662271062271 24.639999999999986H721.0462271062271Q717.5862271062272 25.539999999999964 717.5862271062272 29.120000000000005Q717.5862271062272 31.04000000000002 718.486227106227 33.22000000000003Q719.3862271062271 35.39000000000004 719.506227106227 35.78000000000003L744.346227106227 96.58000000000004L768.4062271062271 37.440000000000055Q769.6862271062271 34.50000000000006 769.6862271062271 31.430000000000064M840.606227106227 78.53000000000009H808.7362271062271L800.5462271062272 98.88000000000011Q798.6262271062271 103.62000000000012 798.6262271062271 106.69000000000011Q798.6262271062271 110.91000000000014 802.466227106227 112.7100000000001H784.1562271062271Q785.4362271062271 112.7100000000001 787.8762271062271 110.15000000000009Q790.3062271062272 107.59000000000009 793.5062271062271 100.03000000000009L826.9162271062271 20.550000000000068L860.0662271062271 100.42000000000007Q862.8762271062271 107.3300000000001 865.506227106227 109.8900000000001Q868.1262271062271 112.4500000000001 869.6662271062271 112.7100000000001H848.4162271062271Q851.6162271062271 111.17000000000007 851.6162271062271 107.97000000000008Q851.6162271062271 105.28000000000009 849.5662271062271 100.29000000000008ZM810.9162271062271 73.28000000000009H838.556227106227L824.606227106227 39.11000000000007ZM906.386227106227 68.42000000000007Q912.276227106227 68.42000000000007 916.626227106227 65.67000000000007Q920.986227106227 62.91000000000008 923.226227106227 58.50000000000006Q925.466227106227 54.08000000000004 925.466227106227 49.220000000000084Q925.466227106227 44.230000000000075 923.346227106227 39.81000000000006Q921.236227106227 35.39000000000004 916.886227106227 32.58000000000004Q912.536227106227 29.760000000000048 906.266227106227 29.760000000000048H895.386227106227V100.93000000000006Q895.386227106227 106.05000000000007 896.666227106227 108.67000000000007Q897.946227106227 111.30000000000007 899.4762271062269 112.13000000000005Q901.0162271062269 112.96000000000004 901.0162271062269 112.71000000000004H880.6662271062269Q880.6662271062269 112.96000000000004 882.1962271062268 112.07000000000005Q883.7362271062268 111.17000000000007 884.9462271062268 108.61000000000007Q886.1662271062269 106.05000000000007 886.1662271062269 100.93000000000006V36.930000000000064Q886.1662271062269 31.680000000000064 884.9462271062268 28.930000000000064Q883.7362271062268 26.180000000000064 882.1962271062268 25.220000000000084Q880.6662271062269 24.260000000000105 880.6662271062269 24.6400000000001H906.0062271062269Q915.9862271062269 24.6400000000001 922.456227106227 27.910000000000082Q928.916227106227 31.170000000000073 931.796227106227 36.35000000000008Q934.676227106227 41.54000000000008 934.676227106227 47.680000000000064Q934.676227106227 52.80000000000007 932.246227106227 57.730000000000075T925.266227106227 66.31000000000006Q920.726227106227 69.95000000000005 914.7062271062271 71.36000000000007L912.6662271062271 71.75000000000006L935.1862271062271 100.42000000000007Q939.6662271062271 105.41000000000008 942.616227106227 108.10000000000008Q945.5562271062271 110.79000000000008 946.906227106227 111.68000000000006Q948.246227106227 112.58000000000004 948.506227106227 112.71000000000004H933.526227106227L898.706227106227 68.42000000000002ZM959.896227106227 112.72000000000008Q959.896227106227 113.10000000000008 961.426227106227 112.1400000000001Q962.9662271062269 111.18000000000012 964.246227106227 108.56000000000012Q965.526227106227 105.93000000000012 965.526227106227 100.81000000000012V36.560000000000116Q965.526227106227 31.44000000000011 964.306227106227 28.810000000000116Q963.0962271062269 26.19000000000011 961.556227106227 25.290000000000134Q960.026227106227 24.400000000000148 960.026227106227 24.650000000000148H980.376227106227Q980.376227106227 24.400000000000148 978.836227106227 25.290000000000134Q977.3062271062271 26.19000000000011 976.0262271062271 28.810000000000116Q974.7462271062271 31.44000000000011 974.7462271062271 36.560000000000116V100.81000000000012Q974.7462271062271 105.93000000000012 976.0262271062271 108.56000000000012Q977.3062271062271 111.18000000000012 978.836227106227 112.0800000000001Q980.376227106227 112.97000000000008 980.376227106227 112.72000000000008ZM1023.266227106227 114.25000000000006Q1016.6062271062272 114.25000000000006 1010.466227106227 112.40000000000003Q1004.3162271062272 110.54000000000002 999.4562271062271 107.21000000000004V91.72000000000003Q1002.7862271062272 100.30000000000001 1009.6362271062271 104.72000000000003Q1016.476227106227 109.13000000000005 1023.9062271062271 109.13000000000005Q1031.326227106227 109.13000000000005 1036.316227106227 104.20000000000005Q1041.316227106227 99.28000000000003 1041.316227106227 91.98000000000002Q1041.316227106227 87.12 1039.326227106227 83.66000000000003Q1037.346227106227 80.20000000000005 1032.996227106227 77.20000000000005Q1028.636227106227 74.19000000000005 1020.7062271062271 70.48000000000002Q1009.566227106227 65.36000000000001 1004.516227106227 59.79000000000002Q999.4562271062271 54.22000000000003 999.4562271062271 46.28000000000003Q999.4562271062271 39.50000000000006 1002.716227106227 34.190000000000055Q1005.986227106227 28.880000000000052 1011.556227106227 26.000000000000057Q1017.1162271062269 23.12000000000006 1023.776227106227 23.12000000000006Q1029.536227106227 23.12000000000006 1035.036227106227 24.720000000000084Q1040.546227106227 26.320000000000107 1045.276227106227 29.260000000000105V43.0800000000001Q1042.206227106227 36.04000000000008 1035.996227106227 32.1400000000001Q1029.796227106227 28.240000000000123 1023.3962271062271 28.240000000000123Q1016.0962271062272 28.240000000000123 1011.6162271062271 32.97000000000014Q1007.1362271062271 37.71000000000015 1007.1362271062271 44.24000000000012Q1007.1362271062271 48.97000000000014 1009.8262271062272 52.36000000000013Q1012.5162271062272 55.760000000000105 1016.4162271062271 58.060000000000116T1027.3562271062272 63.69000000000011Q1034.5262271062272 67.15000000000009 1039.1362271062271 70.09000000000009Q1043.7462271062273 73.04000000000008 1046.8162271062272 77.7700000000001Q1049.8862271062271 82.5100000000001 1049.8862271062271 89.29000000000008Q1049.8862271062271 96.97000000000008 1046.2362271062273 102.60000000000008Q1042.5962271062272 108.24000000000007 1036.5162271062272 111.24000000000007Q1030.436227106227 114.25000000000006 1023.2662271062272 114.25000000000006 "></path><rect width="63.98" height="83.62" x="332.1462271062272" y="-369.77" fill="none" rx="0" ry="0" transform="translate(175.75 400.15)"></rect><path fill="#fff" d="M557.1762271062272 93.49000000000001Q557.1762271062272 91.68 557.4262271062272 89.88Q557.6762271062272 88.07 558.0062271062272 86.30000000000001Q558.3262271062272 84.53000000000003 558.5862271062272 82.69Q558.8362271062272 80.83999999999997 558.8362271062272 78.95999999999998Q556.4462271062272 78.95999999999998 554.7162271062272 79.18T551.3162271062272 79.61000000000001Q549.6562271062272 79.83000000000004 547.7762271062272 79.94T543.2262271062272 79.89999999999998Q541.2762271062272 82.07 538.7862271062272 84.52999999999997Q536.2862271062272 86.98999999999995 533.4662271062272 89.07999999999998Q530.6562271062272 91.18 527.5462271062272 92.58999999999997T521.2562271062272 94Q519.0862271062272 94 517.1062271062272 93.26999999999998Q515.1162271062271 92.54999999999995 513.5962271062272 91.25T511.2162271062272 88.11000000000001Q510.3462271062272 86.25999999999999 510.3462271062272 84.02000000000004Q510.3462271062272 82.87000000000006 510.74622710622725 82.25000000000006Q511.13622710622724 81.64000000000004 512.4362271062272 81.64000000000004Q513.0862271062272 81.64000000000004 513.5962271062272 82.83000000000004T514.9362271062272 85.50000000000006Q515.7662271062272 86.99000000000007 517.0662271062272 88.18000000000006T520.6062271062272 89.37000000000006Q523.3562271062272 89.37000000000006 525.9862271062273 88.32000000000005Q528.6262271062271 87.27000000000004 531.0462271062272 85.65000000000003Q533.4662271062272 84.02000000000004 535.6062271062272 82.00000000000006Q537.7362271062273 79.98000000000008 539.4662271062273 78.02000000000004Q539.2562271062272 76.22000000000003 538.1662271062272 75.35000000000002Q537.0862271062272 74.48000000000002 535.8862271062272 73.62Q534.6962271062272 72.75 533.7562271062272 71.30000000000001Q532.8162271062272 69.86000000000001 532.8162271062272 66.75Q532.8162271062272 62.339999999999975 535.4962271062273 59.85000000000002Q538.1662271062272 57.360000000000014 542.7962271062272 57.360000000000014Q544.1662271062272 57.360000000000014 545.5062271062272 57.650000000000034Q546.8362271062273 57.93000000000001 548.2162271062273 58.33000000000004Q549.5862271062273 58.73000000000002 550.9262271062273 59.02000000000004Q552.2562271062272 59.31000000000006 553.6362271062272 59.31000000000006Q554.4962271062273 59.31000000000006 555.0462271062272 59.09000000000003Q555.5862271062273 58.870000000000005 556.0162271062272 58.440000000000055T556.9562271062273 57.28000000000003Q557.4662271062273 56.56 558.2562271062272 55.55000000000001Q558.6862271062273 54.97000000000003 559.5962271062273 53.710000000000036Q560.4962271062273 52.440000000000055 561.5862271062273 50.89000000000004Q562.6662271062273 49.34000000000003 563.8962271062273 47.60000000000002Q565.1262271062272 45.870000000000005 566.2062271062273 44.28000000000003T568.1562271062273 41.460000000000036T569.3862271062272 39.58000000000004Q570.1762271062273 38.930000000000064 570.8362271062273 38.75000000000006Q571.4862271062273 38.57000000000005 572.3462271062273 38.57000000000005Q573.2162271062273 38.57000000000005 573.6462271062272 39.180000000000064Q574.0862271062273 39.80000000000007 574.1962271062273 40.66000000000008Q574.2962271062272 41.530000000000086 574.2662271062272 42.430000000000064Q574.2262271062273 43.34000000000009 574.2262271062273 43.84000000000009V44.530000000000086Q574.2262271062273 45.000000000000114 574.1962271062273 45.510000000000105Q574.1562271062273 46.010000000000105 574.1562271062273 46.48000000000013V47.100000000000136Q573.9362271062273 47.820000000000164 573.4662271062273 49.26000000000016Q572.9962271062273 50.71000000000015 572.4262271062273 52.55000000000018Q571.8462271062273 54.39000000000016 571.2262271062273 56.420000000000186Q570.6162271062273 58.44000000000017 570.0762271062273 60.320000000000164Q569.5262271062272 62.20000000000016 569.0962271062273 63.64000000000016Q568.6662271062273 65.09000000000015 568.5162271062272 65.81000000000017Q568.4462271062273 66.17000000000019 568.3062271062273 66.9700000000002Q568.1562271062273 67.76000000000022 568.0162271062272 68.67000000000019Q567.8662271062273 69.57000000000016 567.7262271062273 70.36000000000018Q567.5762271062273 71.1600000000002 567.5762271062273 71.45000000000016Q568.2262271062273 71.59000000000015 568.8762271062274 71.88000000000017T569.5262271062273 72.82000000000016Q569.5262271062273 73.54000000000019 568.9862271062273 73.98000000000019Q568.4462271062273 74.4100000000002 567.7262271062273 74.77000000000021T566.3862271062274 75.64000000000021Q565.7762271062273 76.1500000000002 565.6962271062273 77.0900000000002Q565.5562271062273 77.95000000000022 565.1962271062273 80.23000000000019T564.3662271062274 85.07000000000016Q563.8962271062273 87.64000000000016 563.4962271062273 89.88000000000017T562.8862271062274 92.98000000000019L562.5962271062273 93.7800000000002Q562.3762271062274 94.36000000000018 562.0862271062273 94.93000000000018Q561.7962271062273 95.51000000000016 561.5062271062272 96.02000000000015Q561.2162271062273 96.52000000000015 561.0762271062273 96.74000000000018Q559.3362271062273 96.38000000000017 558.2562271062272 95.8400000000002T557.1762271062273 93.49000000000018M555.9462271062273 65.74000000000018Q555.0762271062273 65.74000000000018 553.5262271062273 66.9700000000002Q551.9662271062273 68.20000000000022 550.4562271062273 69.82000000000022Q548.9362271062273 71.45000000000022 547.7762271062273 73.07000000000022Q546.6262271062274 74.70000000000022 546.6262271062274 75.50000000000023Q547.0562271062273 75.50000000000023 548.3162271062273 75.4600000000002Q549.5862271062273 75.42000000000019 550.9962271062273 75.39000000000021Q552.4062271062273 75.3500000000002 553.6662271062273 75.2800000000002Q554.9362271062273 75.2100000000002 555.4362271062273 75.2100000000002Q555.7262271062273 75.2100000000002 556.3462271062273 75.06000000000023Q556.9562271062273 74.92000000000024 557.5362271062273 74.77000000000021Q558.1162271062274 74.63000000000022 558.5862271062273 74.48000000000019Q559.0562271062273 74.3400000000002 559.1262271062274 74.27000000000021Q559.1962271062273 74.27000000000021 559.1962271062273 73.80000000000018V73.04000000000002Q559.1962271062273 72.46000000000004 559.0162271062272 71.23000000000002T558.4362271062273 68.77000000000004Q558.0362271062272 67.55000000000001 557.4262271062273 66.64000000000004Q556.8162271062273 65.74000000000007 555.9462271062273 65.74000000000007M535.6362271062274 65.81000000000006Q535.6362271062274 66.82000000000005 536.3562271062273 68.12000000000006Q537.0862271062273 69.43000000000006 538.1662271062273 70.58000000000004Q539.2562271062272 71.74000000000007 540.4762271062273 72.53000000000003Q541.7062271062273 73.33000000000004 542.7962271062273 73.33000000000004Q543.8062271062273 73.33000000000004 545.1762271062273 72.10000000000002T547.8162271062273 69.24000000000001Q549.0762271062273 67.62 549.9462271062273 66.10000000000002T550.8162271062273 64.01000000000005Q550.8162271062273 62.78000000000003 549.9862271062273 62.160000000000025Q549.1562271062272 61.55000000000001 548.0362271062272 61.30000000000001Q546.9162271062273 61.04000000000002 545.6862271062273 61.04000000000002H543.6562271062273Q542.6462271062273 61.04000000000002 541.2362271062273 61.22000000000003T538.5962271062273 61.910000000000025Q537.3762271062274 62.420000000000016 536.5062271062272 63.35000000000002Q535.6362271062274 64.29000000000002 535.6362271062274 65.81M569.3162271062273 47.45999999999998L557.3162271062273 62.129999999999995Q558.9062271062273 64.00999999999999 560.2762271062273 66.17000000000002Q561.6562271062273 68.34000000000003 562.8862271062274 70.58000000000004Z " paint-order="stroke"></path></g><rect width="566" height="145" x="467" y="0" id="space-saver" fill="transparent" stroke="transparent"></rect></g></svg>